<?xml version="1.0" encoding="UTF-8"?>
<svg width="26px" height="26px" viewBox="0 0 26 26" version="1.1" xmlns="http://www.w3.org/2000/svg" xmlns:xlink="http://www.w3.org/1999/xlink">
    <!-- Generator: Sketch 53.1 (72631) - https://sketchapp.com -->
    <title>App/SMM/color/ok</title>
    <desc>Created with Sketch.</desc>
    <g id="App/SMM/color/ok" stroke="none" stroke-width="1" fill="none" fill-rule="evenodd">
        <path d="M15.1599552,18.0434545 C16.2488824,17.7954091 17.2974733,17.3642273 18.2624552,16.7577909 C18.9929915,16.2969364 19.2139915,15.3319545 18.7529824,14.5987909 C18.2921279,13.8656273 17.3271461,13.6446273 16.5939824,14.1054818 C14.4053097,15.4827909 11.5885643,15.4801636 9.39973698,14.1054818 C8.66657335,13.6446273 7.70159153,13.8656273 7.24073698,14.5987909 C6.77988244,15.3293273 7.00088244,16.2969364 7.73126426,16.7577909 C8.69624608,17.3642273 9.74483698,17.7955636 10.8337643,18.0434545 L7.84995517,21.0300455 C7.23810971,21.6418909 7.23810971,22.6311364 7.84995517,23.2429818 C8.15719153,23.5475909 8.55622789,23.7012091 8.95510971,23.7012091 C9.35677335,23.7012091 9.75565517,23.5475909 10.0630461,23.2429818 L12.9983279,20.3075455 L15.9337643,23.2429818 C16.5456097,23.8548273 17.5348552,23.8548273 18.1467006,23.2429818 C18.7585461,22.6311364 18.7585461,21.6391091 18.1467006,21.0300455 L15.1599552,18.0434545 L15.1599552,18.0434545 Z M12.9981733,6.13217273 C14.219237,6.13217273 15.2111097,7.12404545 15.2111097,8.34510909 C15.2111097,9.56339091 14.219237,10.5554182 12.9981733,10.5554182 C11.7798915,10.5554182 10.785237,9.56354545 10.785237,8.34510909 C10.785237,7.12404545 11.7798915,6.13217273 12.9981733,6.13217273 L12.9981733,6.13217273 Z M12.9981733,13.6848091 C15.9444279,13.6848091 18.3406552,11.2885818 18.3406552,8.34510909 C18.3406552,5.39622727 15.9444279,3 12.9981733,3 C10.0520733,3 7.65584608,5.39622727 7.65584608,8.34248182 C7.65584608,11.2887364 10.0520733,13.6848091 12.9981733,13.6848091 Z" id="Shape" fill="#FF9800" fill-rule="nonzero"></path>
    </g>
</svg>