<?xml version="1.0" encoding="UTF-8"?>
<svg width="26px" height="26px" viewBox="0 0 26 26" version="1.1" xmlns="http://www.w3.org/2000/svg" xmlns:xlink="http://www.w3.org/1999/xlink">
    <!-- Generator: Sketch 53.1 (72631) - https://sketchapp.com -->
    <title>App/SMM/color/twitter</title>
    <desc>Created with Sketch.</desc>
    <g id="App/SMM/color/twitter" stroke="none" stroke-width="1" fill="none" fill-rule="evenodd">
        <path d="M25.8367347,5.93135877 C24.942884,6.32143956 23.9837952,6.58598789 22.9760951,6.70409471 C24.0050254,6.09726329 24.7926457,5.13474354 25.1659399,3.99135073 C24.2007796,4.55331563 23.1354208,4.9613743 22.0002602,5.18258031 C21.0912507,4.22752529 19.7982724,3.63265306 18.3641431,3.63265306 C15.6127894,3.63265306 13.3819524,5.8297447 13.3819524,8.53799421 C13.3819524,8.9220954 13.4259604,9.29724674 13.5109606,9.65598349 C9.37103319,9.45119205 5.70003512,7.49773969 3.24308667,4.52939724 C2.81360184,5.25281127 2.56927604,6.09573908 2.56927604,6.99553168 C2.56927604,8.69791912 3.44947589,10.2000096 4.78495426,11.078815 C3.96848468,11.0519263 3.2005866,10.8307203 2.52832359,10.4630337 L2.52832359,10.5243148 C2.52832359,12.9007553 4.24622322,14.8841056 6.52408409,15.3355066 C6.10674214,15.4461096 5.66666205,15.5073907 5.21138353,15.5073907 C4.88967666,15.5073907 4.57856504,15.4760076 4.27352486,15.4162116 C4.90785129,17.3666937 6.74717969,18.7850699 8.92642928,18.8239568 C7.22218047,20.1392337 5.07328807,20.9209195 2.73927632,20.9209195 C2.3371328,20.9209195 1.94102105,20.8970011 1.55102041,20.8536588 C3.75606369,22.2481556 6.37388543,23.0612245 9.18746146,23.0612245 C18.3520796,23.0612245 23.3616116,15.5851255 23.3616116,9.10148332 L23.3449052,8.46627812 C24.3237163,7.7787026 25.1705034,6.91482666 25.8367347,5.93135877 Z" id="Shape" fill="#00ABE4" fill-rule="nonzero"></path>
    </g>
</svg>